<?xml version="1.0" standalone="no"?>
<!DOCTYPE svg PUBLIC "-//W3C//DTD SVG 20010904//EN"
 "http://www.w3.org/TR/2001/REC-SVG-20010904/DTD/svg10.dtd">
<svg version="1.0" xmlns="http://www.w3.org/2000/svg"
 width="2245.000000pt" height="1587.000000pt" viewBox="0 0 2245.000000 1587.000000"
 preserveAspectRatio="xMidYMid meet">

<g transform="translate(0.000000,1587.000000) scale(0.100000,-0.100000)"
fill="#000000" stroke="none">
<path d="M5020 11093 c-693 -27 -1372 -162 -2170 -432 -523 -177 -936 -355
-1900 -821 -338 -163 -582 -277 -805 -375 l-140 -62 -3 -4532 -2 -4533 32 6
c18 3 112 17 208 31 522 74 902 206 1331 461 291 174 432 296 1074 934 674
669 999 976 1177 1110 156 118 346 208 533 251 91 21 121 23 350 22 367 -2
778 -38 1110 -99 471 -86 962 -257 1440 -503 184 -95 241 -128 547 -312 429
-259 620 -346 1233 -564 540 -192 739 -254 1035 -324 547 -129 1052 -143 1444
-41 639 168 1348 780 1716 1483 362 692 385 1501 58 2047 -178 298 -425 522
-829 754 -282 161 -510 253 -1239 498 -612 205 -740 253 -900 333 -473 238
-852 576 -1169 1045 -178 263 -262 418 -671 1225 -375 741 -475 929 -596 1115
-201 311 -491 595 -820 802 -117 73 -399 211 -538 263 -228 84 -530 158 -781
190 -113 15 -523 37 -610 33 -22 -1 -74 -3 -115 -5z"/>
</g>
</svg>
