<svg id="Capa_1" enable-background="new 0 0 510 510" height="512" viewBox="0 0 510 510" width="512" xmlns="http://www.w3.org/2000/svg" xmlns:xlink="http://www.w3.org/1999/xlink"><linearGradient id="SVGID_1_" gradientUnits="userSpaceOnUse" x1="132.649" x2="445.358" y1="132.649" y2="445.358"><stop offset="0" stop-color="#edf5ff"/><stop offset="1" stop-color="#d5e8fe"/></linearGradient><linearGradient id="lg1"><stop offset="0" stop-color="#07485e" stop-opacity="0"/><stop offset=".2708" stop-color="#074459" stop-opacity=".271"/><stop offset=".597" stop-color="#05394a" stop-opacity=".597"/><stop offset=".9505" stop-color="#032632" stop-opacity=".951"/><stop offset="1" stop-color="#03232e"/></linearGradient><linearGradient id="SVGID_2_" gradientUnits="userSpaceOnUse" x1="220.387" x2="89.12" xlink:href="#lg1" y1="232.982" y2="101.715"/><linearGradient id="SVGID_3_" gradientUnits="userSpaceOnUse" x1="403.368" x2="193.368" xlink:href="#lg1" y1="412.272" y2="284.938"/><linearGradient id="SVGID_4_" gradientUnits="userSpaceOnUse" x1="354.385" x2="179.021" xlink:href="#lg1" y1="219.108" y2="43.745"/><linearGradient id="SVGID_5_" gradientUnits="userSpaceOnUse" x1="305.333" x2="270.638" xlink:href="#lg1" y1="305.333" y2="270.638"/><linearGradient id="SVGID_6_" gradientUnits="userSpaceOnUse" x1="447.919" x2="296.919" xlink:href="#lg1" y1="246.359" y2="77.859"/><linearGradient id="SVGID_7_" gradientUnits="userSpaceOnUse" x1="438.525" x2="272.192" xlink:href="#lg1" y1="351.677" y2="268.677"/><linearGradient id="SVGID_8_" gradientUnits="userSpaceOnUse" x1="176.949" x2="110.449" xlink:href="#lg1" y1="322.771" y2="212.271"/><linearGradient id="lg2"><stop offset="0" stop-color="#ff637b"/><stop offset="1" stop-color="#e63950"/></linearGradient><linearGradient id="SVGID_9_" gradientTransform="matrix(-1 0 0 -1 -1618 -3746)" gradientUnits="userSpaceOnUse" x1="-2002.357" x2="-1717.442" xlink:href="#lg2" y1="-4130.356" y2="-3845.442"/><linearGradient id="SVGID_10_" gradientUnits="userSpaceOnUse" x1="125.644" x2="410.558" xlink:href="#lg2" y1="125.644" y2="410.558"/><linearGradient id="lg3"><stop offset="0" stop-color="#ffda2d"/><stop offset="1" stop-color="#fdbf00"/></linearGradient><linearGradient id="SVGID_11_" gradientUnits="userSpaceOnUse" x1="130.209" x2="187.193" xlink:href="#lg3" y1="142.541" y2="199.524"/><linearGradient id="lg4"><stop offset="0" stop-color="#ff9100" stop-opacity="0"/><stop offset="1" stop-color="#ff9100"/></linearGradient><linearGradient id="SVGID_12_" gradientUnits="userSpaceOnUse" x1="148.198" x2="208.672" xlink:href="#lg4" y1="175.864" y2="63.392"/><linearGradient id="SVGID_13_" gradientUnits="userSpaceOnUse" x1="95.883" x2="197.458" xlink:href="#lg3" y1="302.562" y2="302.562"/><linearGradient id="SVGID_14_" gradientUnits="userSpaceOnUse" x1="176.162" x2="61.302" xlink:href="#lg4" y1="316.943" y2="239.654"/><linearGradient id="SVGID_15_" gradientUnits="userSpaceOnUse" x1="346.867" x2="403.851" xlink:href="#lg3" y1="142.541" y2="199.524"/><linearGradient id="SVGID_16_" gradientUnits="userSpaceOnUse" x1="364.857" x2="425.33" xlink:href="#lg4" y1="175.864" y2="63.392"/><linearGradient id="SVGID_17_" gradientUnits="userSpaceOnUse" x1="312.542" x2="414.117" xlink:href="#lg3" y1="302.562" y2="302.562"/><linearGradient id="SVGID_18_" gradientUnits="userSpaceOnUse" x1="394.02" x2="277.185" xlink:href="#lg4" y1="317.75" y2="239.132"/><linearGradient id="SVGID_19_" gradientUnits="userSpaceOnUse" x1="233.097" x2="308.915" xlink:href="#lg3" y1="98.81" y2="174.628"/><linearGradient id="SVGID_20_" gradientUnits="userSpaceOnUse" x1="257.032" x2="337.493" xlink:href="#lg4" y1="143.147" y2="-6.499"/><linearGradient id="SVGID_21_" gradientUnits="userSpaceOnUse" x1="187.426" x2="322.574" xlink:href="#lg3" y1="311.722" y2="311.722"/><linearGradient id="SVGID_22_" gradientUnits="userSpaceOnUse" x1="295.835" x2="140.384" xlink:href="#lg4" y1="331.93" y2="227.327"/><g><circle cx="255" cy="255" fill="url(#SVGID_1_)" r="246.078"/><path d="m294.513 368.804c18.685-25.428 30.996-55.825 34.582-88.845l-148.689-148.689c-8.038-9.631-20.132-14.261-33.659-14.261-24.202 0-43.078 18.862-43.078 43.064 0 13.527 5.392 24.858 15.009 32.896l131.813 131.813z" fill="url(#SVGID_2_)"/><path d="m470.069 374.637-169.124-169.125c-8.107-10.332-20.665-16.775-34.422-16.775h-16.543c-1.954 0-3.87.135-5.766.387-17.453 2.303-32.081 14.995-36.569 32.409l-16.563 64.257c-1.683 6.521 1.993 12.906 7.875 15.092 0 0 16.195 17.569 17.143 18.672v102.239c0 5.514 3.463 10.197 8.32 12.054l45.412 45.412h86.614c48.156-21.819 88.023-58.7 113.623-104.622z" fill="url(#SVGID_3_)"/><path d="m453.413 400.557c24.962-33.969 41.409-74.578 46.199-118.691l-198.638-198.638c-10.739-12.867-26.895-19.051-44.967-19.051-32.332 0-57.549 25.198-57.549 57.53 0 18.072 7.204 33.209 20.052 43.947l176.093 176.093z" fill="url(#SVGID_4_)"/><path d="m97.091 443.719c42.736 35.797 97.801 57.359 157.909 57.359 135.905 0 246.078-110.173 246.078-246.078 0-60.108-21.563-115.173-57.359-157.909z" fill="url(#SVGID_5_)"/><path d="m364.652 117.009c-24.202 0-43.078 18.862-43.078 43.064 0 13.527 5.392 24.858 15.009 32.896l131.813 131.813 16.945 16.945c10.162-26.975 15.737-56.198 15.737-86.727 0-7.399-.346-14.715-.985-21.948l-101.782-101.782c-8.038-9.631-20.132-14.261-33.659-14.261z" fill="url(#SVGID_6_)"/><path d="m396.886 223.969c-6.093-7.766-15.532-12.608-25.871-12.608h-12.434c-1.469 0-2.908.102-4.333.291-13.117 1.731-24.112 11.27-27.486 24.359l-12.448 48.296c-1.265 4.901 15.493 4.385 19.914 6.029 0 0-1.823 18.519-1.11 19.348v76.843c0 4.145 2.603 7.664 6.253 9.06l34.131 34.131h54.771c30.249-30.001 52.74-67.802 64.224-110.137z" fill="url(#SVGID_7_)"/><path d="m180.061 223.969c-6.093-7.766-15.532-12.608-25.871-12.608h-12.434c-1.469 0-2.908.102-4.333.291-13.117 1.731-24.112 11.27-27.486 24.359l-12.448 48.296c-1.265 4.901 1.498 9.7 5.919 11.343 0 0 12.172 13.205 12.885 14.034v76.843c0 4.145 2.603 7.664 6.253 9.06l34.131 34.131h54.771c30.249-30.001 52.74-67.802 64.224-110.137z" fill="url(#SVGID_8_)"/><path d="m255 510c140.83 0 255-114.17 255-255s-114.17-255-255-255-255 114.17-255 255 114.17 255 255 255zm0-453.71c109.4 0 198.08 88.97 198.08 198.71s-88.68 198.71-198.08 198.71-198.08-88.97-198.08-198.71 88.68-198.71 198.08-198.71z" fill="url(#SVGID_9_)"/><path d="m255 0c-140.83 0-255 114.17-255 255s114.17 255 255 255 255-114.17 255-255-114.17-255-255-255zm0 490.581c-130.105 0-235.581-105.476-235.581-235.581s105.476-235.581 235.581-235.581 235.581 105.476 235.581 235.581-105.476 235.581-235.581 235.581z" fill="url(#SVGID_10_)"/><g><g><g><g><path d="m190.672 159.002c0 24.297-19.7 43.993-44.002 43.993-24.301 0-44.002-19.696-44.002-43.993s19.7-43.993 44.002-43.993 44.002 19.697 44.002 43.993z" fill="url(#SVGID_11_)"/><path d="m166.354 119.649c2.968 5.922 4.641 12.605 4.641 19.679 0 24.297-19.7 43.993-44.002 43.993-7.076 0-13.76-1.673-19.683-4.64 7.224 14.416 22.136 24.314 39.361 24.314 24.301 0 44.002-19.696 44.002-43.993-.001-17.222-9.9-32.13-24.319-39.353z" fill="url(#SVGID_12_)"/></g><path d="m197.151 283.065-12.45-48.281c-3.742-14.511-16.828-24.651-31.814-24.651h-12.432c-14.985 0-28.072 10.14-31.814 24.651l-12.45 48.281c-1.559 6.047 3.007 11.94 9.252 11.94 5.277 0 9.555 4.278 9.555 9.555v80.727c0 5.359 4.344 9.703 9.703 9.703h38.327c8.459 0 15.316-6.857 15.316-15.316v-75.114c0-5.277 4.278-9.555 9.555-9.555 6.245.001 10.811-5.892 9.252-11.94z" fill="url(#SVGID_13_)"/><path d="m184.701 234.785c-3.742-14.511-16.828-24.651-31.814-24.651h-6.216v184.857h16.49c8.386 0 15.183-6.798 15.183-15.183v-75.248c0-5.296 4.335-9.514 9.631-9.555 6.206-.048 10.729-5.917 9.176-11.94z" fill="url(#SVGID_14_)"/></g></g><g><g><g><path d="m407.331 159.002c0 24.297-19.7 43.993-44.002 43.993-24.301 0-44.002-19.696-44.002-43.993s19.7-43.993 44.002-43.993c24.301 0 44.002 19.697 44.002 43.993z" fill="url(#SVGID_15_)"/><path d="m383.012 119.649c2.968 5.922 4.641 12.605 4.641 19.679 0 24.297-19.7 43.993-44.002 43.993-7.076 0-13.76-1.673-19.683-4.64 7.224 14.416 22.136 24.314 39.361 24.314 24.301 0 44.002-19.696 44.002-43.993 0-17.222-9.9-32.13-24.319-39.353z" fill="url(#SVGID_16_)"/></g><path d="m413.809 283.065-12.45-48.281c-3.742-14.511-16.828-24.651-31.814-24.651h-12.432c-14.985 0-28.072 10.14-31.814 24.651l-12.45 48.281c-1.559 6.047 3.007 11.94 9.252 11.94 5.277 0 9.555 4.278 9.555 9.555v80.727c0 5.359 4.344 9.703 9.703 9.703h43.94c5.359 0 9.703-4.344 9.703-9.703v-80.727c0-5.277 4.278-9.555 9.555-9.555 6.245.001 10.811-5.892 9.252-11.94z" fill="url(#SVGID_17_)"/><path d="m401.359 234.785c-3.742-14.511-16.828-24.651-31.814-24.651h-6.216v184.857h21.97c5.359 0 9.703-4.344 9.703-9.703v-80.728c0-5.277 4.278-9.555 9.555-9.555 6.245 0 10.811-5.893 9.252-11.94z" fill="url(#SVGID_18_)"/></g></g></g><g><g><g><path d="m313.545 120.713c0 32.328-26.212 58.534-58.545 58.534-32.334 0-58.545-26.206-58.545-58.534 0-32.327 26.212-58.534 58.545-58.534s58.545 26.207 58.545 58.534z" fill="url(#SVGID_19_)"/><path d="m281.189 68.352c3.949 7.879 6.174 16.771 6.174 26.184 0 32.327-26.212 58.534-58.545 58.534-9.415 0-18.308-2.225-26.189-6.173 9.612 19.181 29.452 32.35 52.371 32.35 32.333 0 58.545-26.206 58.545-58.534 0-22.914-13.172-42.75-32.356-52.361z" fill="url(#SVGID_20_)"/></g><path d="m322.164 285.781-16.565-64.239c-4.979-19.307-22.391-32.798-42.329-32.798h-16.54c-19.938 0-37.35 13.492-42.329 32.798l-16.565 64.239c-2.075 8.046 4.001 15.887 12.31 15.887 7.021 0 12.713 5.692 12.713 12.713v107.409c0 7.13 5.78 12.91 12.91 12.91h58.463c7.13 0 12.91-5.78 12.91-12.91v-107.409c0-7.021 5.692-12.713 12.713-12.713 8.309 0 14.384-7.841 12.309-15.887z" fill="url(#SVGID_21_)"/><path d="m305.599 221.542c-4.979-19.307-22.391-32.798-42.329-32.798h-8.27v245.956h29.231c7.13 0 12.91-5.78 12.91-12.91v-107.409c0-7.021 5.692-12.713 12.713-12.713 8.309 0 14.385-7.841 12.31-15.887z" fill="url(#SVGID_22_)"/></g></g><path d="m461.19 104.94-356.25 356.25c-21.5-15.67-40.46-34.63-56.13-56.13l356.25-356.25c21.5 15.67 40.46 34.63 56.13 56.13z" fill="url(#SVGID_10_)"/></g></svg>